<svg width="26" height="26" viewBox="0 0 26 26" fill="none" xmlns="http://www.w3.org/2000/svg">
<path d="M21.8225 14.0025C23.9383 14.009 25.6537 15.7548 25.6666 17.9147V21.7429C25.6537 23.9047 23.9402 25.654 21.8225 25.6671H18.0725C15.9567 25.6539 14.2465 23.9028 14.2401 21.7429V17.9147C14.2401 15.754 15.9559 14.0025 18.0725 14.0025H21.8225ZM5.71732 14.0025C6.11106 13.9595 6.49433 14.1497 6.70439 14.4924C6.91445 14.835 6.91445 15.2701 6.70439 15.6128C6.49433 15.9555 6.11106 16.1457 5.71732 16.1026H4.17733C3.19506 16.1026 2.39695 16.912 2.39048 17.9147V21.6949C2.41546 22.6896 3.20281 23.4881 4.17733 23.507H7.95088C8.4237 23.5102 8.87823 23.3207 9.21367 22.9805C9.54912 22.6403 9.73775 22.1776 9.73774 21.6949V16.0186L9.72169 15.8774C9.70396 15.5019 9.88408 15.1402 10.2011 14.935C10.5577 14.7042 11.0159 14.7177 11.3588 14.9693C11.7017 15.2209 11.8604 15.66 11.7597 16.0786V21.7309C11.7597 23.8982 10.0386 25.6551 7.91562 25.6551H4.17733C2.07266 25.6105 0.376918 23.8795 0.333252 21.7309V17.9147C0.333252 16.8751 0.738622 15.8781 1.45987 15.1441C2.18111 14.4101 3.1589 13.9993 4.17733 14.0025H5.71732ZM21.8225 16.1026H18.0725C17.0921 16.1026 16.2973 16.9139 16.2973 17.9147V21.7429C16.2942 22.2245 16.4802 22.6873 16.8138 23.0278C17.1474 23.3683 17.6007 23.5582 18.0725 23.555H21.8225C22.2942 23.5582 22.7476 23.3683 23.0812 23.0278C23.4147 22.6873 23.6008 22.2245 23.5976 21.7429V17.9147C23.5976 17.4341 23.4106 16.9732 23.0777 16.6334C22.7448 16.2935 22.2933 16.1026 21.8225 16.1026ZM21.8225 0.333771C23.9226 0.384677 25.6114 2.11397 25.6548 4.25798V8.07418C25.6674 9.11178 25.2756 10.112 24.5657 10.8547C23.8558 11.5974 22.8859 12.0217 21.8695 12.0344H20.3178C19.7921 11.9769 19.3934 11.5241 19.3934 10.9843C19.3934 10.4446 19.7921 9.99173 20.3178 9.93428H21.8225C22.2985 9.93112 22.7535 9.73424 23.0868 9.3873C23.42 9.04036 23.6039 8.57203 23.5976 8.08618V4.25798C23.5849 3.26259 22.7976 2.45881 21.8225 2.44588H18.0725C17.0921 2.44588 16.2974 3.25718 16.2974 4.25798V9.98228L16.2834 10.1247C16.1992 10.6359 15.7608 11.0206 15.2394 11.0143C14.966 11.0081 14.7065 10.8903 14.5187 10.6874C14.331 10.4845 14.2306 10.2132 14.2401 9.93428V4.25798C14.237 3.21832 14.6394 2.22015 15.3584 1.48387C16.0775 0.74759 17.054 0.333771 18.0725 0.333771H21.8225ZM7.92737 0.333771C10.0477 0.34036 11.765 2.09343 11.7715 4.25798V8.08618C11.7715 9.12584 11.3661 10.1228 10.6448 10.8568C9.9236 11.5908 8.9458 12.0016 7.92737 11.9984H4.17733C2.06155 11.9918 0.346143 10.246 0.333252 8.08618V4.25798C0.346087 2.09615 2.05965 0.346873 4.17733 0.333771H7.92737ZM7.92737 2.44588H4.17733C3.70047 2.43621 3.23985 2.62285 2.89929 2.96373C2.55873 3.30462 2.36688 3.77108 2.36697 4.25798V8.08618C2.35728 8.57929 2.54489 9.05514 2.88653 9.40389C3.22816 9.75265 3.69429 9.94417 4.17733 9.93428H7.92737C8.40334 9.93112 8.8584 9.73424 9.19163 9.3873C9.52487 9.04036 9.70874 8.57203 9.70247 8.08618V4.25798C9.69606 3.25991 8.90506 2.45243 7.92737 2.44588Z" fill="white"/>
</svg>
