<svg width="28" height="28" viewBox="0 0 28 28" fill="none" xmlns="http://www.w3.org/2000/svg">
<path d="M10.6351 5.84167L10.6646 5.90267L10.702 5.95914C10.7074 5.96732 10.7126 5.97563 10.7175 5.98405C10.8153 7.48808 10.9167 8.9837 11.0176 10.4716C11.0994 11.6765 11.1808 12.8764 11.2596 14.0716C11.2588 14.4571 11.3217 14.8399 11.4458 15.2052L11.4552 15.2329L11.4662 15.26C11.8468 16.197 12.785 16.7758 13.7853 16.7234L13.7853 16.7235L13.7969 16.7227L22.4616 16.1675L22.5965 16.1772L22.723 16.1863C22.8172 16.2026 22.9018 16.2472 22.965 16.3114C23.0386 16.3861 23.0781 16.4815 23.0811 16.5781C22.7485 21.2038 19.3486 25.0838 14.6995 26.0868C10.0369 27.0928 5.26904 24.9555 2.99074 20.8653L2.99078 20.8652L2.9864 20.8575C2.31885 19.6836 1.8975 18.3917 1.74633 17.0575L1.74439 17.0404L1.74187 17.0233C1.68543 16.6428 1.66072 16.2584 1.66799 15.874L1.66813 15.8661L1.66816 15.8582C1.68347 10.9277 5.19224 6.65027 10.1344 5.59403C10.3504 5.55764 10.5517 5.66917 10.6351 5.84167ZM15.1736 1.66679L15.1809 1.66712L15.1882 1.66734C20.7893 1.83501 25.4517 5.88055 26.3292 11.268L26.3291 11.2843L26.3281 11.383C26.3262 11.3872 26.3234 11.3916 26.3194 11.3961C26.3085 11.4084 26.2888 11.42 26.2631 11.4216L26.261 11.4217L16.0447 12.0955L15.9469 12.0974C15.9021 12.0911 15.8619 12.072 15.8315 12.0447C15.7902 12.0075 15.7712 11.9596 15.7714 11.9143L15.7715 11.8781L15.769 11.8419L15.0831 1.81827V1.72324C15.0853 1.71314 15.091 1.70137 15.1032 1.69042C15.1193 1.67597 15.1445 1.6655 15.1736 1.66679Z" stroke="white" stroke-width="2"/>
</svg>
