<svg width="28" height="26" viewBox="0 0 28 26" fill="none" xmlns="http://www.w3.org/2000/svg">
<path d="M17.5313 17.8802C18.0832 17.8802 18.5312 18.3172 18.5312 18.8556V20.0476C18.5312 23.1459 15.947 25.6667 12.7694 25.6667H6.44018C3.25739 25.6667 0.666748 23.1396 0.666748 20.0336C0.666748 19.4953 1.11475 19.0595 1.66665 19.0595C2.21854 19.0595 2.66654 19.4953 2.66654 20.0336C2.66654 22.0654 4.35988 23.716 6.44018 23.716H12.7694C14.8445 23.716 16.5314 22.0705 16.5314 20.0476V18.8556C16.5314 18.3172 16.9794 17.8802 17.5313 17.8802ZM26.3332 12.0237C26.7384 12.0237 27.1033 12.2618 27.2578 12.6279C27.4123 12.9927 27.3253 13.4132 27.0396 13.6919L23.2452 17.3768C23.0491 17.5655 22.7946 17.6618 22.5388 17.6618C22.283 17.6618 22.0259 17.5655 21.8311 17.3743C21.4415 16.9917 21.4415 16.3748 21.8337 15.9948L23.9127 13.9757H10.7322C10.1803 13.9757 9.73102 13.5386 9.73102 13.0003C9.73102 12.4619 10.1803 12.0237 10.7322 12.0237H26.3332ZM12.7567 0.333374C15.9408 0.333374 18.5314 2.86048 18.5314 5.96647V7.14578C18.5314 7.68287 18.0834 8.11989 17.5315 8.11989C16.9796 8.11989 16.5316 7.68287 16.5316 7.14578V5.96647C16.5316 3.93465 14.8383 2.28412 12.7567 2.28412H6.42876C4.35364 2.28412 2.6668 3.93085 2.6668 5.95253V15.5986C2.6668 16.1369 2.2188 16.574 1.66691 16.574C1.11501 16.574 0.667008 16.1369 0.667008 15.5986V5.95253C0.667008 2.85414 3.25116 0.333374 6.42876 0.333374H12.7567ZM21.8285 8.63025C22.2181 8.24516 22.8492 8.24263 23.2426 8.62265L24.1984 9.54482C24.5918 9.92483 24.5944 10.5417 24.2062 10.9243C24.0101 11.1168 23.753 11.2143 23.4958 11.2143C23.2413 11.2143 22.9868 11.1193 22.792 10.9319L21.835 10.0084C21.4428 9.62969 21.4402 9.01153 21.8285 8.63025Z" fill="white"/>
</svg>
