<svg width="27" height="27" viewBox="0 0 27 27" fill="none" xmlns="http://www.w3.org/2000/svg">
<path d="M25.9537 24.483L21.5539 20.1813L21.4507 20.0245C21.259 19.8336 20.9968 19.7261 20.7232 19.7261C20.4495 19.7261 20.1873 19.8336 19.9956 20.0245C16.2564 23.4549 10.4947 23.6414 6.53159 20.4602C2.56853 17.2791 1.63388 11.7174 4.3475 7.46369C7.06112 3.21 12.581 1.58424 17.2463 3.66461C21.9116 5.74498 24.2747 10.8859 22.7684 15.678C22.6599 16.0242 22.7486 16.4007 23.001 16.6656C23.2534 16.9305 23.6312 17.0437 23.9921 16.9625C24.353 16.8812 24.6422 16.6179 24.7506 16.2717C26.5513 10.5849 23.8317 4.46514 18.3513 1.87123C12.8708 -0.722689 6.2741 0.987726 2.82862 5.89601C-0.616868 10.8043 0.122855 17.4374 4.56926 21.5044C9.01566 25.5714 15.8343 25.8518 20.6143 22.1641L24.51 25.9729C24.9124 26.3646 25.5628 26.3646 25.9652 25.9729C26.3671 25.5757 26.3671 24.9362 25.9652 24.539L25.9537 24.483Z" fill="#0A2C44"/>
</svg>
