<svg width="130" height="137" viewBox="0 0 130 137" fill="none" xmlns="http://www.w3.org/2000/svg">
<path fill-rule="evenodd" clip-rule="evenodd" d="M7.72724 95.9899C2.29678 95.9899 -1.24929 101.597 1.78507 106.1C14.3435 124.74 35.6459 136.999 59.8116 136.999C98.4265 136.999 129.73 105.696 129.73 67.0811C129.73 36.1029 109.584 9.83008 81.6781 0.650042C77.3887 -0.761035 73.2519 2.6497 73.2519 7.16523C73.2519 10.4678 75.5255 13.2985 78.6354 14.4101C100.258 22.1383 115.73 42.8028 115.73 67.0811C115.73 97.964 90.6945 122.999 59.8116 122.999C41.0162 122.999 24.3867 113.726 14.2484 99.5057C12.7318 97.3784 10.3398 95.9899 7.72724 95.9899Z" fill="#DA0013"/>
</svg>
