<svg width="34" height="30" viewBox="0 0 34 30" fill="none" xmlns="http://www.w3.org/2000/svg">
<path d="M22.833 30L20.333 8.33333H24.0497L22.1663 0.766667L25.0663 0L27.1497 8.33333H33.6664L31.1664 30H22.833ZM5.33301 13.3333H13.6663C14.9924 13.3333 16.2642 13.8601 17.2019 14.7978C18.1396 15.7355 18.6663 17.0072 18.6663 18.3333H0.333008C0.333008 17.0072 0.859792 15.7355 1.79747 14.7978C2.73516 13.8601 4.00693 13.3333 5.33301 13.3333ZM18.6663 25C18.6663 26.3261 18.1396 27.5979 17.2019 28.5355C16.2642 29.4732 14.9924 30 13.6663 30H5.33301C4.00693 30 2.73516 29.4732 1.79747 28.5355C0.859792 27.5979 0.333008 26.3261 0.333008 25H18.6663ZM1.99968 20H10.333L12.833 22.5L15.333 20H16.9997C17.4417 20 17.8656 20.1756 18.1782 20.4882C18.4908 20.8007 18.6663 21.2246 18.6663 21.6667C18.6663 22.1087 18.4908 22.5326 18.1782 22.8452C17.8656 23.1577 17.4417 23.3333 16.9997 23.3333H1.99968C1.55765 23.3333 1.13372 23.1577 0.821163 22.8452C0.508603 22.5326 0.333008 22.1087 0.333008 21.6667C0.333008 21.2246 0.508603 20.8007 0.821163 20.4882C1.13372 20.1756 1.55765 20 1.99968 20Z" fill="#A615A0"/>
</svg>
