<svg width="28" height="28" viewBox="0 0 28 28" fill="none" xmlns="http://www.w3.org/2000/svg">
<path d="M25.4126 9.72025C25.9481 9.72669 26.3789 10.1617 26.3789 10.6961V19.3263C26.3789 24.2646 23.2915 27.3334 18.3423 27.3334H14.4066C13.8645 27.3334 13.4232 26.8983 13.4167 26.3575C13.4231 25.8146 13.8626 25.3762 14.4066 25.3698H18.3423C22.2428 25.3698 24.3992 23.2299 24.4345 19.3263V10.6961C24.4345 10.1572 24.8724 9.72025 25.4126 9.72025ZM17.3643 1.70147C17.9064 1.70791 18.3423 2.14821 18.3423 2.68912C18.3423 2.94999 18.2377 3.20001 18.0517 3.38337C17.8658 3.56673 17.6139 3.66815 17.3525 3.66501H8.69147C4.79105 3.66501 2.63463 5.81668 2.63463 9.72025V19.3263C2.63463 23.2299 4.79105 25.3698 8.69147 25.3698C9.23548 25.3762 9.67494 25.8146 9.6813 26.3575C9.67485 26.8983 9.23357 27.3334 8.69147 27.3334C3.7423 27.3334 0.666748 24.2646 0.666748 19.3263V9.72025C0.666748 4.77024 3.7423 1.70147 8.69147 1.70147H17.3643ZM18.8542 10.6322C19.1983 10.3978 19.6619 10.4045 20.0015 10.6651C20.3834 10.9583 20.4945 11.4854 20.2631 11.9072L16.4923 16.7631C16.3272 16.9665 16.0918 17.1007 15.8324 17.1394C15.5743 17.1656 15.3161 17.0896 15.1136 16.9277L11.496 14.0941L8.24369 18.3152C8.0886 18.5257 7.85539 18.6654 7.59625 18.7029C7.33712 18.7405 7.07371 18.6728 6.86499 18.515C6.43904 18.1818 6.3603 17.569 6.68824 17.1394L10.5415 12.1306C10.7023 11.9229 10.9392 11.7876 11.2001 11.7545C11.461 11.7214 11.7243 11.7933 11.932 11.9542L15.5496 14.7878L18.7312 10.7314L18.8542 10.6322ZM22.535 0.933305C23.8291 0.394555 25.3212 0.687393 26.3144 1.67509C27.3077 2.66279 27.6063 4.15053 27.0707 5.44369C26.5352 6.73684 25.2712 7.58034 23.8689 7.58034C21.9602 7.58034 20.411 6.03985 20.4045 4.13532L20.4123 3.88993C20.5002 2.58992 21.3169 1.44036 22.535 0.933305ZM23.8689 2.64209C23.0424 2.64209 22.3724 3.31063 22.3724 4.13532C22.3724 4.96001 23.0424 5.62856 23.8689 5.62856C24.6954 5.62856 25.3655 4.96001 25.3655 4.13532C25.3655 3.31063 24.6954 2.64209 23.8689 2.64209Z" fill="white"/>
</svg>
