<svg width="28" height="28" viewBox="0 0 28 28" fill="none" xmlns="http://www.w3.org/2000/svg">
<path d="M19.0074 0.666687C24.1203 0.666687 27.3334 3.85637 27.3334 9.00442V12.4286C27.3334 12.6982 27.2256 12.9565 27.0339 13.1459C26.8422 13.3354 26.5827 13.4403 26.3132 13.4371V13.4137C25.7497 13.4137 25.293 12.9569 25.293 12.3935V9.00442C25.293 4.93523 23.0649 2.70714 19.0074 2.70714H9.00448C4.94702 2.70714 2.70721 4.94696 2.70721 9.00442V19.0074C2.70721 23.0531 4.94702 25.2929 9.00448 25.2929H19.0074C23.0649 25.2929 25.293 23.0531 25.293 19.0074C25.293 18.4439 25.7497 17.9871 26.3132 17.9871C26.8766 17.9871 27.3334 18.4439 27.3334 19.0074C27.3334 24.1437 24.1437 27.3334 19.0074 27.3334H9.00448C3.85643 27.3334 0.666748 24.1437 0.666748 19.0074V9.00442C0.666748 3.85637 3.85643 0.666687 9.00448 0.666687H19.0074ZM14.0939 16.1929C14.3656 16.199 14.6234 16.3144 14.8088 16.5131C14.9943 16.7117 15.0917 16.9769 15.0789 17.2483V18.5383L15.0608 18.6984C15.02 18.9084 14.9138 19.1018 14.7554 19.2496C14.5575 19.4343 14.2942 19.5328 14.0235 19.5233C13.4628 19.498 13.0252 19.0291 13.0385 18.4679V17.178C13.0477 16.9073 13.164 16.6515 13.362 16.4667C13.56 16.2819 13.8233 16.1834 14.0939 16.1929ZM14.047 8.46499C14.1605 8.46496 14.272 8.48407 14.3773 8.52051C14.7971 8.64695 15.1024 9.03629 15.1024 9.49694L15.1014 12.6854L18.5735 12.6866C18.6905 12.6853 18.8055 12.7042 18.9139 12.7416C19.072 12.7898 19.2185 12.8772 19.3377 12.9979C19.5272 13.1895 19.6321 13.4491 19.629 13.7186C19.629 14.273 19.1864 14.7261 18.6322 14.7388H9.54391C9.44844 14.7366 9.35625 14.7216 9.26897 14.6952C8.82295 14.5842 8.4938 14.1842 8.48843 13.7069C8.48537 13.4374 8.59024 13.1778 8.77971 12.9861C8.96918 12.7945 9.22749 12.6866 9.497 12.6866H13.015V9.48522C13.0276 8.92251 13.4842 8.47117 14.047 8.46499Z" fill="white"/>
</svg>
