<svg width="29" height="33" viewBox="0 0 29 33" fill="none" xmlns="http://www.w3.org/2000/svg">
<path d="M17.2255 28.7344C17.674 28.3341 18.3623 28.3093 18.8411 28.7021C19.3678 29.1341 19.4417 29.9079 19.0061 30.4302C17.9321 31.823 16.2706 32.6469 14.5028 32.6633L14.1518 32.6485C12.5219 32.5303 11.0133 31.7265 10.0139 30.4302L9.90764 30.282C9.59539 29.77 9.69995 29.0949 10.1788 28.7021C10.7055 28.27 11.4857 28.3433 11.9213 28.8657C12.1126 29.1193 12.3396 29.3444 12.5953 29.5342C13.2789 30.0389 14.1374 30.2522 14.9801 30.1267C15.8229 30.0011 16.5803 29.5472 17.0843 28.8657H17.0986L17.2255 28.7344ZM14.5171 0.333328C19.4793 0.333328 25.0439 3.83231 25.6749 9.45059V12.3806C25.8903 13.4381 26.3853 14.4199 27.1091 15.2253C27.1519 15.274 27.1903 15.3263 27.2238 15.3818C27.88 16.3696 28.2565 17.5142 28.3138 18.6959L28.2707 18.9945C28.3202 20.6115 27.7805 22.192 26.7505 23.4465C25.4352 24.8657 23.6371 25.7523 21.7023 25.9356C16.9363 26.4588 12.1266 26.4588 7.36066 25.9356C5.45409 25.7398 3.68729 24.8536 2.39846 23.4465C1.35153 22.21 0.795664 20.6371 0.835227 19.023V18.8239C0.914076 17.6069 1.32015 16.4331 2.01124 15.4245L2.12597 15.2822C2.84469 14.4734 3.33892 13.4931 3.56013 12.4375V9.50748L3.63944 9.3438C3.88055 8.92824 4.35016 8.6852 4.84199 8.73841C5.3953 8.79827 5.83963 9.21826 5.9265 9.7635V12.6935C5.93208 12.7455 5.93208 12.798 5.9265 12.85C5.62788 14.3174 4.94533 15.6811 3.94736 16.8041C3.56303 17.4113 3.34549 18.1076 3.31633 18.8239V19.1368C3.28449 20.1442 3.62063 21.1292 4.26287 21.9104C5.15329 22.8225 6.34401 23.3877 7.61881 23.5034C12.2328 24.0012 16.8875 24.0012 21.5015 23.5034C22.8111 23.3842 24.0309 22.792 24.9291 21.8392C25.5398 21.0765 25.8598 20.1246 25.8327 19.151V18.8239C25.8032 18.1052 25.5911 17.4055 25.216 16.7899C24.1765 15.6796 23.4537 14.3148 23.1221 12.8358C23.1165 12.7838 23.1165 12.7313 23.1221 12.6793V9.73505C22.7062 5.43956 18.3894 2.77977 14.6319 2.77977C13.0344 2.77613 11.4631 3.18285 10.0712 3.96032L9.90074 4.04494C9.55027 4.18646 9.1493 4.16162 8.81604 3.96953C8.42723 3.74544 8.19222 3.32923 8.20273 2.88336C8.21324 2.43749 8.46759 2.03263 8.86653 1.82679C10.5913 0.860423 12.5362 0.346394 14.5171 0.333328Z" fill="#124E78"/>
</svg>
