<svg width="26" height="28" viewBox="0 0 26 28" fill="none" xmlns="http://www.w3.org/2000/svg">
<path d="M1.49738 7.55122C1.76974 7.49847 2.0524 7.5539 2.28278 7.70525C2.73788 8.00745 2.86983 8.60534 2.5826 9.06376L2.50725 9.21191C2.22248 9.86407 2.47684 10.6355 3.12228 10.9961C3.64452 11.3086 4.07438 11.7486 4.36954 12.2727C5.28863 13.9213 4.71824 15.9843 3.07431 16.9572C2.37922 17.3456 2.13769 18.2104 2.53463 18.8896L3.36214 20.2832C3.55043 20.6153 3.8693 20.858 4.24505 20.9553C4.62081 21.0526 5.02094 20.9959 5.35296 20.7985C5.88831 20.4953 6.49704 20.3376 7.11591 20.3418C9.10296 20.3418 10.7138 21.9148 10.7138 23.8552C10.7204 24.6397 11.3735 25.2723 12.1769 25.2722L12.1649 25.2957C12.5377 25.2957 12.8821 25.4899 13.0685 25.8051C13.2549 26.1203 13.2549 26.5087 13.0685 26.824C12.8821 27.1392 12.5377 27.3334 12.1649 27.3334C10.1779 27.3334 8.56705 25.7604 8.56705 23.82C8.57028 23.573 8.5039 23.33 8.37516 23.1173C7.97277 22.4371 7.08347 22.2017 6.38435 22.5903L6.17121 22.695C4.52193 23.4396 2.54197 22.864 1.58719 21.3255L0.771677 19.9319C-0.147411 18.2832 0.422981 16.2202 2.06691 15.2473C2.2848 15.1222 2.46641 14.9448 2.59459 14.732C2.83512 14.4047 2.92156 13.9928 2.83229 13.5994C2.74303 13.206 2.4865 12.8684 2.12687 12.6709L1.927 12.5437C0.437999 11.5268 -0.049151 9.56629 0.831641 7.98632L0.933785 7.85944C1.08257 7.70208 1.27949 7.59342 1.49738 7.55122ZM23.0021 10.936C23.4748 10.7703 24.0128 10.95 24.2777 11.3826C24.5709 11.8647 24.4101 12.4875 23.9179 12.7763C23.7 12.9014 23.5184 13.0788 23.3903 13.2916C23.1948 13.6174 23.1406 14.0059 23.2397 14.3709C23.3388 14.7358 23.5829 15.0471 23.9179 15.2356C25.615 16.229 26.1722 18.3741 25.1652 20.0373L24.3497 21.4309L24.2194 21.6261C23.1781 23.0801 21.1705 23.5559 19.5525 22.6957C19.1039 22.4312 18.5435 22.4258 18.0895 22.6815C17.6356 22.9373 17.3599 23.4138 17.3698 23.9254C17.3124 24.4492 16.8598 24.8463 16.3204 24.8463C15.7811 24.8463 15.3285 24.4492 15.2711 23.9254C15.2968 22.6975 15.9773 21.5719 17.0658 20.9567C18.1543 20.3414 19.4927 20.3259 20.5959 20.9156C20.9274 21.1103 21.3255 21.1652 21.6993 21.0679C22.0723 20.9657 22.3904 20.7265 22.5867 20.4003L23.4022 19.0067C23.5971 18.6827 23.651 18.2959 23.5519 17.9328C23.4527 17.5697 23.2088 17.2605 22.8746 17.0743C22.3126 16.7399 21.8593 16.2566 21.5673 15.6807C20.6482 14.032 21.2186 11.969 22.8626 10.9961L23.0021 10.936ZM12.9924 9.60247C14.1873 9.59937 15.3343 10.0607 16.1803 10.8846C17.0263 11.7086 17.5018 12.8274 17.5018 13.9942L17.4943 14.2602C17.3956 15.9349 16.3268 17.4198 14.7264 18.0708C13.0418 18.7561 11.1003 18.3823 9.80811 17.1238C8.51597 15.8653 8.12797 13.9704 8.82522 12.3235C9.52246 10.6766 11.1675 9.60247 12.9924 9.60247ZM12.9924 11.6637C11.6677 11.6637 10.5938 12.7123 10.5938 14.0059C10.5938 15.2995 11.6677 16.3482 12.9924 16.3482C14.3171 16.3482 15.391 15.2995 15.391 14.0059L15.383 13.8138C15.283 12.6101 14.2509 11.6637 12.9924 11.6637ZM13.8199 0.666748C15.807 0.666748 17.4178 2.23975 17.4178 4.18014C17.4146 4.42712 17.4809 4.67021 17.6097 4.88282C17.8007 5.21198 18.1186 5.45288 18.4925 5.55187C18.8664 5.65086 19.2654 5.59972 19.6005 5.40983C21.2888 4.51232 23.4014 5.06932 24.3977 6.67465C24.673 7.16455 24.5037 7.77933 24.0139 8.0683C23.5161 8.34579 22.8826 8.18462 22.5867 7.70525L22.4925 7.56728C22.0543 6.99956 21.2422 6.82721 20.5959 7.18995C19.4946 7.77885 18.1586 7.76447 17.0708 7.15201C15.983 6.53956 15.3009 5.41764 15.2711 4.19186C15.2841 3.80798 15.1369 3.43539 14.8634 3.15941C14.5898 2.88344 14.2133 2.72773 13.8199 2.72794H12.1769C11.7825 2.72782 11.4048 2.88317 11.1294 3.15876C10.8539 3.43436 10.7041 3.80687 10.7138 4.19186C10.7027 5.42432 10.02 6.55767 8.92234 7.16604C7.82467 7.77442 6.47823 7.76568 5.38894 7.14311L5.34096 7.09626L5.22558 7.01525C4.82893 6.69491 4.72587 6.12965 5.00516 5.6909C5.30984 5.21227 5.95417 5.06546 6.44431 5.36299C6.66309 5.48765 6.91065 5.55615 7.16388 5.56208C7.55202 5.57793 7.93067 5.4424 8.21638 5.18537C8.50209 4.92834 8.6714 4.5709 8.68698 4.19186C8.6796 2.28734 10.2275 0.72387 12.1769 0.666748H13.8199Z" fill="white"/>
</svg>
