<svg width="35" height="60" viewBox="0 0 25 60" fill="none" xmlns="http://www.w3.org/2000/svg">
<path d="M18.3002 10.9314C12.786 15.9515 6.94952 18.6228 0.371608 16.508C0.767035 16.508 1.16246 16.488 1.55789 16.508C9.23311 16.9532 15.3978 12.3641 20.5838 4.56133C21.2897 3.49966 21.9955 2.43227 22.6914 1.35633C23.0592 0.785535 23.4823 0.428789 24.0062 0.785535C24.5994 1.19651 24.5697 2.00703 24.4531 2.78331C23.9529 6.10247 22.6282 8.75951 21.0919 11.2168C19.4178 13.8435 17.5667 16.2231 15.5659 18.3203C15.3682 18.5343 15.0755 18.6342 15.0024 19.2193C15.904 18.737 16.7601 18.3117 17.5984 17.8208C18.7614 17.1603 19.9496 16.5962 21.1572 16.1313C22.2248 15.7032 23.1462 16.0485 23.4151 17.0674C23.767 18.4145 23.2352 19.3506 22.5629 20.1297C20.1409 22.9095 17.6735 25.5865 15.643 29.0141C12.875 33.6575 10.5875 38.7375 8.55299 44.0773C6.711 48.9083 5.06715 53.8914 3.62992 59.0007C3.60027 59.1091 3.49548 59.1776 3.33533 59.1833C6.49874 45.0077 10.536 31.557 18.1974 20.9402C15.639 22.5299 13.0767 24.1024 10.5222 25.712C7.77794 27.4415 5.04555 29.2167 2.29734 30.9348C1.73583 31.2858 1.11106 31.7082 0.535714 30.9576C-0.239322 29.9473 -0.187921 28.7972 0.784828 27.9125C2.56425 26.2914 4.40298 24.8016 6.21008 23.2348C10.1643 19.8101 14.0632 16.2626 17.5707 11.8989C17.8297 11.5792 18.061 11.2482 18.3002 10.9314Z" fill="#000"/>
<path d="M6.42188 5.19537C6.42188 2.41561 7.86716 0.238037 9.73357 0.238037C11.5328 0.238037 13.1856 2.56117 13.1936 5.10976C13.2015 7.65835 11.4537 10.1613 9.68019 10.1156C7.9067 10.0699 6.42978 7.84956 6.42188 5.19537Z" fill="#000"/>
</svg>
