<svg width="41" height="64" viewBox="0 0 41 64" fill="none" xmlns="http://www.w3.org/2000/svg">
<path d="M29.9913 11.9889C20.9544 17.3079 11.3892 20.1382 0.60901 17.8975C1.25705 17.8975 1.9051 17.8763 2.55314 17.8975C15.1317 18.3692 25.2347 13.5068 33.7338 5.23957C34.8905 4.11469 36.0473 2.98376 37.1879 1.84376C37.7905 1.23898 38.484 0.861 39.3426 1.23898C40.3147 1.67442 40.2661 2.5332 40.0749 3.3557C39.2551 6.87246 37.0842 9.68769 34.5665 12.2912C31.8229 15.0744 28.7892 17.5956 25.5101 19.8177C25.1861 20.0444 24.7065 20.1503 24.5867 20.7702C26.0642 20.2591 27.4672 19.8086 28.8411 19.2885C30.7471 18.5887 32.6944 17.991 34.6735 17.4984C36.4232 17.0448 37.9331 17.4107 38.3738 18.4902C38.9506 19.9175 38.0789 20.9093 36.9773 21.7348C33.008 24.6801 28.9642 27.5164 25.6365 31.1481C21.1002 36.068 17.3512 41.4504 14.0171 47.1081C10.9983 52.2268 8.30429 57.5065 5.9489 62.92C5.90029 63.0349 5.72857 63.1074 5.46611 63.1135C10.6505 48.0939 17.267 33.8424 29.8228 22.5936C25.63 24.2779 21.4307 25.944 17.2443 27.6495C12.7469 29.482 8.2689 31.3628 3.76499 33.1832C2.84477 33.5551 1.82086 34.0027 0.877954 33.2074C-0.392213 32.1369 -0.307974 30.9183 1.28622 29.9809C4.20241 28.2633 7.21582 26.6849 10.1774 25.0248C16.6578 21.3961 23.0475 17.6374 28.7957 13.0139C29.2202 12.6753 29.5993 12.3245 29.9913 11.9889Z" fill="#E9969E"/>
<path d="M29.9913 11.9889C20.9544 17.3079 11.3892 20.1382 0.60901 17.8975C1.25705 17.8975 1.9051 17.8763 2.55314 17.8975C15.1317 18.3692 25.2347 13.5068 33.7338 5.23957C34.8905 4.11469 36.0473 2.98376 37.1879 1.84376C37.7905 1.23898 38.484 0.861 39.3426 1.23898C40.3147 1.67442 40.2661 2.5332 40.0749 3.3557C39.2551 6.87246 37.0842 9.68769 34.5665 12.2912C31.8229 15.0744 28.7892 17.5956 25.5101 19.8177C25.1861 20.0444 24.7065 20.1503 24.5867 20.7702C26.0642 20.2591 27.4672 19.8086 28.8411 19.2885C30.7471 18.5887 32.6944 17.991 34.6735 17.4984C36.4232 17.0448 37.9331 17.4107 38.3738 18.4902C38.9506 19.9175 38.0789 20.9093 36.9773 21.7348C33.008 24.6801 28.9642 27.5164 25.6365 31.1481C21.1002 36.068 17.3512 41.4504 14.0171 47.1081C10.9983 52.2268 8.30429 57.5065 5.9489 62.92C5.90029 63.0349 5.72857 63.1074 5.46611 63.1135C10.6505 48.0939 17.267 33.8424 29.8228 22.5936C25.63 24.2779 21.4307 25.944 17.2443 27.6495C12.7469 29.482 8.2689 31.3628 3.76499 33.1832C2.84477 33.5551 1.82086 34.0027 0.877954 33.2074C-0.392213 32.1369 -0.307974 30.9183 1.28622 29.9809C4.20241 28.2633 7.21582 26.6849 10.1774 25.0248C16.6578 21.3961 23.0475 17.6374 28.7957 13.0139C29.2202 12.6753 29.5993 12.3245 29.9913 11.9889Z" fill="#E16570"/>
<path d="M29.9913 11.9889C20.9544 17.3079 11.3892 20.1382 0.60901 17.8975C1.25705 17.8975 1.9051 17.8763 2.55314 17.8975C15.1317 18.3692 25.2347 13.5068 33.7338 5.23957C34.8905 4.11469 36.0473 2.98376 37.1879 1.84376C37.7905 1.23898 38.484 0.861 39.3426 1.23898C40.3147 1.67442 40.2661 2.5332 40.0749 3.3557C39.2551 6.87246 37.0842 9.68769 34.5665 12.2912C31.8229 15.0744 28.7892 17.5956 25.5101 19.8177C25.1861 20.0444 24.7065 20.1503 24.5867 20.7702C26.0642 20.2591 27.4672 19.8086 28.8411 19.2885C30.7471 18.5887 32.6944 17.991 34.6735 17.4984C36.4232 17.0448 37.9331 17.4107 38.3738 18.4902C38.9506 19.9175 38.0789 20.9093 36.9773 21.7348C33.008 24.6801 28.9642 27.5164 25.6365 31.1481C21.1002 36.068 17.3512 41.4504 14.0171 47.1081C10.9983 52.2268 8.30429 57.5065 5.9489 62.92C5.90029 63.0349 5.72857 63.1074 5.46611 63.1135C10.6505 48.0939 17.267 33.8424 29.8228 22.5936C25.63 24.2779 21.4307 25.944 17.2443 27.6495C12.7469 29.482 8.2689 31.3628 3.76499 33.1832C2.84477 33.5551 1.82086 34.0027 0.877954 33.2074C-0.392213 32.1369 -0.307974 30.9183 1.28622 29.9809C4.20241 28.2633 7.21582 26.6849 10.1774 25.0248C16.6578 21.3961 23.0475 17.6374 28.7957 13.0139C29.2202 12.6753 29.5993 12.3245 29.9913 11.9889Z" fill="#E13443"/>
<path d="M29.9913 11.9889C20.9544 17.3079 11.3892 20.1382 0.60901 17.8975C1.25705 17.8975 1.9051 17.8763 2.55314 17.8975C15.1317 18.3692 25.2347 13.5068 33.7338 5.23957C34.8905 4.11469 36.0473 2.98376 37.1879 1.84376C37.7905 1.23898 38.484 0.861 39.3426 1.23898C40.3147 1.67442 40.2661 2.5332 40.0749 3.3557C39.2551 6.87246 37.0842 9.68769 34.5665 12.2912C31.8229 15.0744 28.7892 17.5956 25.5101 19.8177C25.1861 20.0444 24.7065 20.1503 24.5867 20.7702C26.0642 20.2591 27.4672 19.8086 28.8411 19.2885C30.7471 18.5887 32.6944 17.991 34.6735 17.4984C36.4232 17.0448 37.9331 17.4107 38.3738 18.4902C38.9506 19.9175 38.0789 20.9093 36.9773 21.7348C33.008 24.6801 28.9642 27.5164 25.6365 31.1481C21.1002 36.068 17.3512 41.4504 14.0171 47.1081C10.9983 52.2268 8.30429 57.5065 5.9489 62.92C5.90029 63.0349 5.72857 63.1074 5.46611 63.1135C10.6505 48.0939 17.267 33.8424 29.8228 22.5936C25.63 24.2779 21.4307 25.944 17.2443 27.6495C12.7469 29.482 8.2689 31.3628 3.76499 33.1832C2.84477 33.5551 1.82086 34.0027 0.877954 33.2074C-0.392213 32.1369 -0.307974 30.9183 1.28622 29.9809C4.20241 28.2633 7.21582 26.6849 10.1774 25.0248C16.6578 21.3961 23.0475 17.6374 28.7957 13.0139C29.2202 12.6753 29.5993 12.3245 29.9913 11.9889Z" fill="#AA0E1B"/>
<path d="M29.9913 11.9889C20.9544 17.3079 11.3892 20.1382 0.60901 17.8975C1.25705 17.8975 1.9051 17.8763 2.55314 17.8975C15.1317 18.3692 25.2347 13.5068 33.7338 5.23957C34.8905 4.11469 36.0473 2.98376 37.1879 1.84376C37.7905 1.23898 38.484 0.861 39.3426 1.23898C40.3147 1.67442 40.2661 2.5332 40.0749 3.3557C39.2551 6.87246 37.0842 9.68769 34.5665 12.2912C31.8229 15.0744 28.7892 17.5956 25.5101 19.8177C25.1861 20.0444 24.7065 20.1503 24.5867 20.7702C26.0642 20.2591 27.4672 19.8086 28.8411 19.2885C30.7471 18.5887 32.6944 17.991 34.6735 17.4984C36.4232 17.0448 37.9331 17.4107 38.3738 18.4902C38.9506 19.9175 38.0789 20.9093 36.9773 21.7348C33.008 24.6801 28.9642 27.5164 25.6365 31.1481C21.1002 36.068 17.3512 41.4504 14.0171 47.1081C10.9983 52.2268 8.30429 57.5065 5.9489 62.92C5.90029 63.0349 5.72857 63.1074 5.46611 63.1135C10.6505 48.0939 17.267 33.8424 29.8228 22.5936C25.63 24.2779 21.4307 25.944 17.2443 27.6495C12.7469 29.482 8.2689 31.3628 3.76499 33.1832C2.84477 33.5551 1.82086 34.0027 0.877954 33.2074C-0.392213 32.1369 -0.307974 30.9183 1.28622 29.9809C4.20241 28.2633 7.21582 26.6849 10.1774 25.0248C16.6578 21.3961 23.0475 17.6374 28.7957 13.0139C29.2202 12.6753 29.5993 12.3245 29.9913 11.9889Z" fill="#7B0A14"/>
<path d="M29.9913 11.9889C20.9544 17.3079 11.3892 20.1382 0.60901 17.8975C1.25705 17.8975 1.9051 17.8763 2.55314 17.8975C15.1317 18.3692 25.2347 13.5068 33.7338 5.23957C34.8905 4.11469 36.0473 2.98376 37.1879 1.84376C37.7905 1.23898 38.484 0.861 39.3426 1.23898C40.3147 1.67442 40.2661 2.5332 40.0749 3.3557C39.2551 6.87246 37.0842 9.68769 34.5665 12.2912C31.8229 15.0744 28.7892 17.5956 25.5101 19.8177C25.1861 20.0444 24.7065 20.1503 24.5867 20.7702C26.0642 20.2591 27.4672 19.8086 28.8411 19.2885C30.7471 18.5887 32.6944 17.991 34.6735 17.4984C36.4232 17.0448 37.9331 17.4107 38.3738 18.4902C38.9506 19.9175 38.0789 20.9093 36.9773 21.7348C33.008 24.6801 28.9642 27.5164 25.6365 31.1481C21.1002 36.068 17.3512 41.4504 14.0171 47.1081C10.9983 52.2268 8.30429 57.5065 5.9489 62.92C5.90029 63.0349 5.72857 63.1074 5.46611 63.1135C10.6505 48.0939 17.267 33.8424 29.8228 22.5936C25.63 24.2779 21.4307 25.944 17.2443 27.6495C12.7469 29.482 8.2689 31.3628 3.76499 33.1832C2.84477 33.5551 1.82086 34.0027 0.877954 33.2074C-0.392213 32.1369 -0.307974 30.9183 1.28622 29.9809C4.20241 28.2633 7.21582 26.6849 10.1774 25.0248C16.6578 21.3961 23.0475 17.6374 28.7957 13.0139C29.2202 12.6753 29.5993 12.3245 29.9913 11.9889Z" fill="#4B070D"/>
<path d="M29.9913 11.9889C20.9544 17.3079 11.3892 20.1382 0.60901 17.8975C1.25705 17.8975 1.9051 17.8763 2.55314 17.8975C15.1317 18.3692 25.2347 13.5068 33.7338 5.23957C34.8905 4.11469 36.0473 2.98376 37.1879 1.84376C37.7905 1.23898 38.484 0.861 39.3426 1.23898C40.3147 1.67442 40.2661 2.5332 40.0749 3.3557C39.2551 6.87246 37.0842 9.68769 34.5665 12.2912C31.8229 15.0744 28.7892 17.5956 25.5101 19.8177C25.1861 20.0444 24.7065 20.1503 24.5867 20.7702C26.0642 20.2591 27.4672 19.8086 28.8411 19.2885C30.7471 18.5887 32.6944 17.991 34.6735 17.4984C36.4232 17.0448 37.9331 17.4107 38.3738 18.4902C38.9506 19.9175 38.0789 20.9093 36.9773 21.7348C33.008 24.6801 28.9642 27.5164 25.6365 31.1481C21.1002 36.068 17.3512 41.4504 14.0171 47.1081C10.9983 52.2268 8.30429 57.5065 5.9489 62.92C5.90029 63.0349 5.72857 63.1074 5.46611 63.1135C10.6505 48.0939 17.267 33.8424 29.8228 22.5936C25.63 24.2779 21.4307 25.944 17.2443 27.6495C12.7469 29.482 8.2689 31.3628 3.76499 33.1832C2.84477 33.5551 1.82086 34.0027 0.877954 33.2074C-0.392213 32.1369 -0.307974 30.9183 1.28622 29.9809C4.20241 28.2633 7.21582 26.6849 10.1774 25.0248C16.6578 21.3961 23.0475 17.6374 28.7957 13.0139C29.2202 12.6753 29.5993 12.3245 29.9913 11.9889Z" fill="#DA0013"/>
<path d="M10.5243 5.91092C10.5243 2.96566 12.8929 0.658447 15.9516 0.658447C18.9002 0.658447 21.6091 3.11988 21.622 5.8202C21.635 8.52052 18.7706 11.1725 15.8641 11.1241C12.9577 11.0757 10.5372 8.72312 10.5243 5.91092Z" fill="#E9969E"/>
<path d="M10.5243 5.91092C10.5243 2.96566 12.8929 0.658447 15.9516 0.658447C18.9002 0.658447 21.6091 3.11988 21.622 5.8202C21.635 8.52052 18.7706 11.1725 15.8641 11.1241C12.9577 11.0757 10.5372 8.72312 10.5243 5.91092Z" fill="#E16570"/>
<path d="M10.5243 5.91092C10.5243 2.96566 12.8929 0.658447 15.9516 0.658447C18.9002 0.658447 21.6091 3.11988 21.622 5.8202C21.635 8.52052 18.7706 11.1725 15.8641 11.1241C12.9577 11.0757 10.5372 8.72312 10.5243 5.91092Z" fill="#E13443"/>
<path d="M10.5243 5.91092C10.5243 2.96566 12.8929 0.658447 15.9516 0.658447C18.9002 0.658447 21.6091 3.11988 21.622 5.8202C21.635 8.52052 18.7706 11.1725 15.8641 11.1241C12.9577 11.0757 10.5372 8.72312 10.5243 5.91092Z" fill="#AA0E1B"/>
<path d="M10.5243 5.91092C10.5243 2.96566 12.8929 0.658447 15.9516 0.658447C18.9002 0.658447 21.6091 3.11988 21.622 5.8202C21.635 8.52052 18.7706 11.1725 15.8641 11.1241C12.9577 11.0757 10.5372 8.72312 10.5243 5.91092Z" fill="#7B0A14"/>
<path d="M10.5243 5.91092C10.5243 2.96566 12.8929 0.658447 15.9516 0.658447C18.9002 0.658447 21.6091 3.11988 21.622 5.8202C21.635 8.52052 18.7706 11.1725 15.8641 11.1241C12.9577 11.0757 10.5372 8.72312 10.5243 5.91092Z" fill="#4B070D"/>
<path d="M10.5243 5.91092C10.5243 2.96566 12.8929 0.658447 15.9516 0.658447C18.9002 0.658447 21.6091 3.11988 21.622 5.8202C21.635 8.52052 18.7706 11.1725 15.8641 11.1241C12.9577 11.0757 10.5372 8.72312 10.5243 5.91092Z" fill="#DA0013"/>
</svg>
