<svg width="32" height="32" viewBox="0 0 32 32" fill="none" xmlns="http://www.w3.org/2000/svg">
<path d="M24.0989 19.1746C23.7446 19.518 23.5818 20.0147 23.6625 20.5018L24.8788 27.2333C24.9814 27.8038 24.7406 28.3812 24.2631 28.7109C23.7952 29.053 23.1727 29.094 22.6623 28.8204L16.6026 25.6598C16.3919 25.5477 16.158 25.4875 15.9185 25.4806H15.5477C15.4191 25.4998 15.2933 25.5408 15.1783 25.6038L9.11723 28.7793C8.8176 28.9298 8.47828 28.9832 8.14581 28.9298C7.33584 28.7766 6.79541 28.0049 6.92812 27.1909L8.14581 20.4593C8.22654 19.9682 8.06372 19.4688 7.70936 19.1199L2.76881 14.3312C2.35562 13.9303 2.21196 13.3283 2.40077 12.7851C2.58411 12.2433 3.05203 11.8479 3.61709 11.759L10.417 10.7725C10.9342 10.7192 11.3884 10.4045 11.621 9.9393L14.6174 3.79612C14.6885 3.6593 14.7802 3.53342 14.891 3.4267L15.0141 3.33093C15.0784 3.25978 15.1523 3.20095 15.2344 3.15306L15.3836 3.09834L15.6161 3.00256H16.1922C16.7066 3.05592 17.1595 3.36377 17.3962 3.82348L20.4322 9.9393C20.6511 10.3867 21.0766 10.6973 21.5678 10.7725L28.3677 11.759C28.9424 11.8411 29.4226 12.2379 29.6128 12.7851C29.792 13.3338 29.6374 13.9358 29.216 14.3312L24.0989 19.1746Z" fill="#FFC107"/>
</svg>
